<svg xmlns="http://www.w3.org/2000/svg" viewBox="0 0 239.063 47">
  <path d="M 154.688 46.875 L 145.313 46.875 L 145.313 4.688 L 154.688 4.688 L 154.688 28.125 L 164 14 L 164 14 L 164 14 L 164.063 14.063 L 173 14 L 173 14 L 173 14 L 173 14 L 163 30 L 173 47 L 173 47 L 173 47 L 173 47 L 173 47 L 164.063 46.875 L 164 47 L 164 47 L 164 47 L 154.688 32.813 L 154.688 46.875 Z M 63 45 L 59 47 L 42.188 46.875 L 39 45 L 37.5 42.188 L 37.5 32.813 L 39 30 L 42.188 28.125 L 56.25 28.125 L 56.25 18.75 L 46.875 18.75 L 46.875 23.438 L 37.5 23.438 L 37.5 18.75 L 39 16 L 42.188 14.063 L 60.938 14.063 L 64 15 L 64 19 L 64 40 Z M 98.438 46.875 L 84.375 46.875 L 80 46 L 79.688 42.188 L 79.688 18.75 L 75 18.75 L 75 14.063 L 79.688 14.063 L 79.688 4.688 L 89.063 4.688 L 89.063 14.063 L 98.438 14.063 L 98.438 18.75 L 89.063 18.75 L 89.063 42.188 L 98.438 42.188 L 98.438 46.875 Z M 28.125 46.875 L 0 46.875 L 0 4.688 L 9.375 4.688 L 9.375 42.188 L 28.125 42.188 L 28.125 46.875 Z M 131.25 46.875 L 112.5 46.875 L 109 45 L 107.813 42.188 L 107.813 18.75 L 109 16 L 112.5 14.063 L 131.25 14.063 L 135 15 L 135.938 18.75 L 135.938 42.188 L 135 45 L 131.25 46.875 Z M 234.375 46.875 L 215.625 46.875 L 212 45 L 210.938 42.188 L 210.938 18.75 L 212 16 L 215.625 14.063 L 234.375 14.063 L 238 15 L 239.063 18.75 L 239.063 42.188 L 238 46 L 234.375 46.875 Z M 201.563 46.875 L 182.813 46.875 L 182.813 42.188 L 187.5 42.188 L 187.5 18.75 L 182.813 18.75 L 182.813 14.063 L 196.875 14.063 L 196.875 42.188 L 201.563 42.188 L 201.563 46.875 Z M 117.188 42.188 L 126.563 42.188 L 126.563 18.75 L 117.188 18.75 L 117.188 42.188 Z M 220.313 42.188 L 229.688 42.188 L 229.688 18.75 L 220.313 18.75 L 220.313 42.188 Z M 50 42 L 54 41 L 55 37 L 53 33 L 49 33 L 46 35 L 45 38 L 46 41 Z M 196.875 9.375 L 187.5 9.375 L 187.5 0 L 196.875 0 L 196.875 9.375 Z" fill="#0000;"/>
</svg>